<!--?xml version="1.0" encoding="us-ascii" standalone="no"?--><svg xmlns="http://www.w3.org/2000/svg" xmlns:xlink="http://www.w3.org/1999/xlink" contentstyletype="text/css" height="473px" preserveAspectRatio="none" style="width:1315px;height:473px;background:#FFFFFF;" version="1.1" viewBox="0 0 1315 473" width="1315px" zoomAndPan="magnify"><defs></defs><g><!--class PC--><g id="elem_PC"><rect codeline="1" fill="#F1F1F1" height="129.4844" id="PC" rx="2.5" ry="2.5" style="stroke:#181818;stroke-width:0.5;" width="634" x="323" y="163.89"></rect><ellipse cx="577.75" cy="179.89" fill="#ADD1B2" rx="11" ry="11" style="stroke:#181818;stroke-width:1.0;"></ellipse><path d="M580.7188,185.5306 Q580.1406,185.8275 579.5,185.9681 Q578.8594,186.1244 578.1563,186.1244 Q575.6563,186.1244 574.3281,184.4838 Q573.0156,182.8275 573.0156,179.7025 Q573.0156,176.5775 574.3281,174.9213 Q575.6563,173.265 578.1563,173.265 Q578.8594,173.265 579.5,173.4213 Q580.1563,173.5775 580.7188,173.8744 L580.7188,176.5931 Q580.0938,176.015 579.5,175.7494 Q578.9063,175.4681 578.2813,175.4681 Q576.9375,175.4681 576.25,176.5463 Q575.5625,177.6088 575.5625,179.7025 Q575.5625,181.7963 576.25,182.8744 Q576.9375,183.9369 578.2813,183.9369 Q578.9063,183.9369 579.5,183.6713 Q580.0938,183.39 580.7188,182.8119 L580.7188,185.5306 Z " fill="#000000"></path><text fill="#000000" font-family="sans-serif" font-size="14" lengthAdjust="spacing" textLength="116" x="598.25" y="184.7367">PersonController</text><line style="stroke:#181818;stroke-width:0.5;" x1="324" x2="956" y1="195.89" y2="195.89"></line><rect fill="none" height="6" style="stroke:#C82930;stroke-width:1.0;" width="6" x="331" y="206.5384"></rect><text fill="#000000" font-family="sans-serif" font-size="14" lengthAdjust="spacing" textLength="207" x="343" y="212.8851">personService: PersonService</text><line style="stroke:#181818;stroke-width:0.5;" x1="324" x2="956" y1="220.1869" y2="220.1869"></line><ellipse cx="334" cy="233.8353" fill="#84BE84" rx="3" ry="3" style="stroke:#038048;stroke-width:1.0;"></ellipse><text fill="#000000" font-family="sans-serif" font-size="14" lengthAdjust="spacing" textLength="495" x="343" y="237.182">createPerson(request: CreatePersonRequest): CreatePersonResponse</text><ellipse cx="334" cy="250.1322" fill="#84BE84" rx="3" ry="3" style="stroke:#038048;stroke-width:1.0;"></ellipse><text fill="#000000" font-family="sans-serif" font-size="14" lengthAdjust="spacing" textLength="303" x="343" y="253.4789">getPerson(userId: String): PersonResponse</text><ellipse cx="334" cy="266.4291" fill="#84BE84" rx="3" ry="3" style="stroke:#038048;stroke-width:1.0;"></ellipse><text fill="#000000" font-family="sans-serif" font-size="14" lengthAdjust="spacing" textLength="608" x="343" y="269.7757">updatePerson(userId: String, request: UpdatePersonRequest): UpdatePersonResponse</text><ellipse cx="334" cy="282.7259" fill="#84BE84" rx="3" ry="3" style="stroke:#038048;stroke-width:1.0;"></ellipse><text fill="#000000" font-family="sans-serif" font-size="14" lengthAdjust="spacing" textLength="370" x="343" y="286.0726">deletePerson(userId: String): DeletePersonResponse</text></g><!--class PS--><g id="elem_PS"><rect codeline="9" fill="#F1F1F1" height="113.1875" id="PS" rx="2.5" ry="2.5" style="stroke:#181818;stroke-width:0.5;" width="634" x="323" y="353.37"></rect><ellipse cx="586.25" cy="369.37" fill="#ADD1B2" rx="11" ry="11" style="stroke:#181818;stroke-width:1.0;"></ellipse><path d="M589.2188,375.0106 Q588.6406,375.3075 588,375.4481 Q587.3594,375.6044 586.6563,375.6044 Q584.1563,375.6044 582.8281,373.9638 Q581.5156,372.3075 581.5156,369.1825 Q581.5156,366.0575 582.8281,364.4013 Q584.1563,362.745 586.6563,362.745 Q587.3594,362.745 588,362.9013 Q588.6563,363.0575 589.2188,363.3544 L589.2188,366.0731 Q588.5938,365.495 588,365.2294 Q587.4063,364.9481 586.7813,364.9481 Q585.4375,364.9481 584.75,366.0263 Q584.0625,367.0888 584.0625,369.1825 Q584.0625,371.2763 584.75,372.3544 Q585.4375,373.4169 586.7813,373.4169 Q587.4063,373.4169 588,373.1513 Q588.5938,372.87 589.2188,372.2919 L589.2188,375.0106 Z " fill="#000000"></path><text fill="#000000" font-family="sans-serif" font-size="14" lengthAdjust="spacing" textLength="99" x="606.75" y="374.2167">PersonService</text><line style="stroke:#181818;stroke-width:0.5;" x1="324" x2="956" y1="385.37" y2="385.37"></line><line style="stroke:#181818;stroke-width:0.5;" x1="324" x2="956" y1="393.37" y2="393.37"></line><ellipse cx="334" cy="407.0184" fill="#84BE84" rx="3" ry="3" style="stroke:#038048;stroke-width:1.0;"></ellipse><text fill="#000000" font-family="sans-serif" font-size="14" lengthAdjust="spacing" textLength="495" x="343" y="410.3651">createPerson(request: CreatePersonRequest): CreatePersonResponse</text><ellipse cx="334" cy="423.3153" fill="#84BE84" rx="3" ry="3" style="stroke:#038048;stroke-width:1.0;"></ellipse><text fill="#000000" font-family="sans-serif" font-size="14" lengthAdjust="spacing" textLength="303" x="343" y="426.662">getPerson(userId: String): PersonResponse</text><ellipse cx="334" cy="439.6122" fill="#84BE84" rx="3" ry="3" style="stroke:#038048;stroke-width:1.0;"></ellipse><text fill="#000000" font-family="sans-serif" font-size="14" lengthAdjust="spacing" textLength="608" x="343" y="442.9589">updatePerson(userId: String, request: UpdatePersonRequest): UpdatePersonResponse</text><ellipse cx="334" cy="455.9091" fill="#84BE84" rx="3" ry="3" style="stroke:#038048;stroke-width:1.0;"></ellipse><text fill="#000000" font-family="sans-serif" font-size="14" lengthAdjust="spacing" textLength="370" x="343" y="459.2557">deletePerson(userId: String): DeletePersonResponse</text></g><!--class CPR--><g id="elem_CPR"><rect codeline="16" fill="#F1F1F1" height="80.5938" id="CPR" rx="2.5" ry="2.5" style="stroke:#181818;stroke-width:0.5;" width="186" x="7" y="15.15"></rect><ellipse cx="22" cy="31.15" fill="#ADD1B2" rx="11" ry="11" style="stroke:#181818;stroke-width:1.0;"></ellipse><path d="M24.9688,36.7906 Q24.3906,37.0875 23.75,37.2281 Q23.1094,37.3844 22.4063,37.3844 Q19.9063,37.3844 18.5781,35.7437 Q17.2656,34.0875 17.2656,30.9625 Q17.2656,27.8375 18.5781,26.1812 Q19.9063,24.525 22.4063,24.525 Q23.1094,24.525 23.75,24.6812 Q24.4063,24.8375 24.9688,25.1344 L24.9688,27.8531 Q24.3438,27.275 23.75,27.0094 Q23.1563,26.7281 22.5313,26.7281 Q21.1875,26.7281 20.5,27.8062 Q19.8125,28.8687 19.8125,30.9625 Q19.8125,33.0562 20.5,34.1344 Q21.1875,35.1969 22.5313,35.1969 Q23.1563,35.1969 23.75,34.9312 Q24.3438,34.65 24.9688,34.0719 L24.9688,36.7906 Z " fill="#000000"></path><text fill="#000000" font-family="sans-serif" font-size="14" lengthAdjust="spacing" textLength="154" x="36" y="35.9967">CreatePersonRequest</text><line style="stroke:#181818;stroke-width:0.5;" x1="8" x2="192" y1="47.15" y2="47.15"></line><rect fill="none" height="6" style="stroke:#C82930;stroke-width:1.0;" width="6" x="15" y="57.7984"></rect><text fill="#000000" font-family="sans-serif" font-size="14" lengthAdjust="spacing" textLength="88" x="27" y="64.1451">name: String</text><rect fill="none" height="6" style="stroke:#C82930;stroke-width:1.0;" width="6" x="15" y="74.0953"></rect><text fill="#000000" font-family="sans-serif" font-size="14" lengthAdjust="spacing" textLength="52" x="27" y="80.442">age: int</text><line style="stroke:#181818;stroke-width:0.5;" x1="8" x2="192" y1="87.7437" y2="87.7437"></line></g><!--class CPRs--><g id="elem_CPRs"><rect codeline="21" fill="#F1F1F1" height="64.2969" id="CPRs" rx="2.5" ry="2.5" style="stroke:#181818;stroke-width:0.5;" width="198" x="228" y="23.29"></rect><ellipse cx="243" cy="39.29" fill="#ADD1B2" rx="11" ry="11" style="stroke:#181818;stroke-width:1.0;"></ellipse><path d="M245.9688,44.9306 Q245.3906,45.2275 244.75,45.3681 Q244.1094,45.5244 243.4063,45.5244 Q240.9063,45.5244 239.5781,43.8838 Q238.2656,42.2275 238.2656,39.1025 Q238.2656,35.9775 239.5781,34.3213 Q240.9063,32.665 243.4063,32.665 Q244.1094,32.665 244.75,32.8213 Q245.4063,32.9775 245.9688,33.2744 L245.9688,35.9931 Q245.3438,35.415 244.75,35.1494 Q244.1563,34.8681 243.5313,34.8681 Q242.1875,34.8681 241.5,35.9463 Q240.8125,37.0088 240.8125,39.1025 Q240.8125,41.1963 241.5,42.2744 Q242.1875,43.3369 243.5313,43.3369 Q244.1563,43.3369 244.75,43.0713 Q245.3438,42.79 245.9688,42.2119 L245.9688,44.9306 Z " fill="#000000"></path><text fill="#000000" font-family="sans-serif" font-size="14" lengthAdjust="spacing" textLength="166" x="257" y="44.1367">CreatePersonResponse</text><line style="stroke:#181818;stroke-width:0.5;" x1="229" x2="425" y1="55.29" y2="55.29"></line><rect fill="none" height="6" style="stroke:#C82930;stroke-width:1.0;" width="6" x="236" y="65.9384"></rect><text fill="#000000" font-family="sans-serif" font-size="14" lengthAdjust="spacing" textLength="92" x="248" y="72.2851">userId: String</text><line style="stroke:#181818;stroke-width:0.5;" x1="229" x2="425" y1="79.5869" y2="79.5869"></line></g><!--class PR--><g id="elem_PR"><rect codeline="25" fill="#F1F1F1" height="96.8906" id="PR" rx="2.5" ry="2.5" style="stroke:#181818;stroke-width:0.5;" width="152" x="461" y="7"></rect><ellipse cx="476" cy="23" fill="#ADD1B2" rx="11" ry="11" style="stroke:#181818;stroke-width:1.0;"></ellipse><path d="M478.9688,28.6406 Q478.3906,28.9375 477.75,29.0781 Q477.1094,29.2344 476.4063,29.2344 Q473.9063,29.2344 472.5781,27.5938 Q471.2656,25.9375 471.2656,22.8125 Q471.2656,19.6875 472.5781,18.0313 Q473.9063,16.375 476.4063,16.375 Q477.1094,16.375 477.75,16.5313 Q478.4063,16.6875 478.9688,16.9844 L478.9688,19.7031 Q478.3438,19.125 477.75,18.8594 Q477.1563,18.5781 476.5313,18.5781 Q475.1875,18.5781 474.5,19.6563 Q473.8125,20.7188 473.8125,22.8125 Q473.8125,24.9063 474.5,25.9844 Q475.1875,27.0469 476.5313,27.0469 Q477.1563,27.0469 477.75,26.7813 Q478.3438,26.5 478.9688,25.9219 L478.9688,28.6406 Z " fill="#000000"></path><text fill="#000000" font-family="sans-serif" font-size="14" lengthAdjust="spacing" textLength="120" x="490" y="27.8467">PersonResponse</text><line style="stroke:#181818;stroke-width:0.5;" x1="462" x2="612" y1="39" y2="39"></line><rect fill="none" height="6" style="stroke:#C82930;stroke-width:1.0;" width="6" x="469" y="49.6484"></rect><text fill="#000000" font-family="sans-serif" font-size="14" lengthAdjust="spacing" textLength="92" x="481" y="55.9951">userId: String</text><rect fill="none" height="6" style="stroke:#C82930;stroke-width:1.0;" width="6" x="469" y="65.9453"></rect><text fill="#000000" font-family="sans-serif" font-size="14" lengthAdjust="spacing" textLength="88" x="481" y="72.292">name: String</text><rect fill="none" height="6" style="stroke:#C82930;stroke-width:1.0;" width="6" x="469" y="82.2422"></rect><text fill="#000000" font-family="sans-serif" font-size="14" lengthAdjust="spacing" textLength="52" x="481" y="88.5889">age: int</text><line style="stroke:#181818;stroke-width:0.5;" x1="462" x2="612" y1="95.8906" y2="95.8906"></line></g><!--class UPR--><g id="elem_UPR"><rect codeline="31" fill="#F1F1F1" height="80.5938" id="UPR" rx="2.5" ry="2.5" style="stroke:#181818;stroke-width:0.5;" width="190" x="648" y="15.15"></rect><ellipse cx="663" cy="31.15" fill="#ADD1B2" rx="11" ry="11" style="stroke:#181818;stroke-width:1.0;"></ellipse><path d="M665.9688,36.7906 Q665.3906,37.0875 664.75,37.2281 Q664.1094,37.3844 663.4063,37.3844 Q660.9063,37.3844 659.5781,35.7437 Q658.2656,34.0875 658.2656,30.9625 Q658.2656,27.8375 659.5781,26.1812 Q660.9063,24.525 663.4063,24.525 Q664.1094,24.525 664.75,24.6812 Q665.4063,24.8375 665.9688,25.1344 L665.9688,27.8531 Q665.3438,27.275 664.75,27.0094 Q664.1563,26.7281 663.5313,26.7281 Q662.1875,26.7281 661.5,27.8062 Q660.8125,28.8687 660.8125,30.9625 Q660.8125,33.0562 661.5,34.1344 Q662.1875,35.1969 663.5313,35.1969 Q664.1563,35.1969 664.75,34.9312 Q665.3438,34.65 665.9688,34.0719 L665.9688,36.7906 Z " fill="#000000"></path><text fill="#000000" font-family="sans-serif" font-size="14" lengthAdjust="spacing" textLength="158" x="677" y="35.9967">UpdatePersonRequest</text><line style="stroke:#181818;stroke-width:0.5;" x1="649" x2="837" y1="47.15" y2="47.15"></line><rect fill="none" height="6" style="stroke:#C82930;stroke-width:1.0;" width="6" x="656" y="57.7984"></rect><text fill="#000000" font-family="sans-serif" font-size="14" lengthAdjust="spacing" textLength="88" x="668" y="64.1451">name: String</text><rect fill="none" height="6" style="stroke:#C82930;stroke-width:1.0;" width="6" x="656" y="74.0953"></rect><text fill="#000000" font-family="sans-serif" font-size="14" lengthAdjust="spacing" textLength="52" x="668" y="80.442">age: int</text><line style="stroke:#181818;stroke-width:0.5;" x1="649" x2="837" y1="87.7437" y2="87.7437"></line></g><!--class UPRs--><g id="elem_UPRs"><rect codeline="36" fill="#F1F1F1" height="64.2969" id="UPRs" rx="2.5" ry="2.5" style="stroke:#181818;stroke-width:0.5;" width="202" x="873" y="23.29"></rect><ellipse cx="888" cy="39.29" fill="#ADD1B2" rx="11" ry="11" style="stroke:#181818;stroke-width:1.0;"></ellipse><path d="M890.9688,44.9306 Q890.3906,45.2275 889.75,45.3681 Q889.1094,45.5244 888.4063,45.5244 Q885.9063,45.5244 884.5781,43.8838 Q883.2656,42.2275 883.2656,39.1025 Q883.2656,35.9775 884.5781,34.3213 Q885.9063,32.665 888.4063,32.665 Q889.1094,32.665 889.75,32.8213 Q890.4063,32.9775 890.9688,33.2744 L890.9688,35.9931 Q890.3438,35.415 889.75,35.1494 Q889.1563,34.8681 888.5313,34.8681 Q887.1875,34.8681 886.5,35.9463 Q885.8125,37.0088 885.8125,39.1025 Q885.8125,41.1963 886.5,42.2744 Q887.1875,43.3369 888.5313,43.3369 Q889.1563,43.3369 889.75,43.0713 Q890.3438,42.79 890.9688,42.2119 L890.9688,44.9306 Z " fill="#000000"></path><text fill="#000000" font-family="sans-serif" font-size="14" lengthAdjust="spacing" textLength="170" x="902" y="44.1367">UpdatePersonResponse</text><line style="stroke:#181818;stroke-width:0.5;" x1="874" x2="1074" y1="55.29" y2="55.29"></line><rect fill="none" height="6" style="stroke:#C82930;stroke-width:1.0;" width="6" x="881" y="65.9384"></rect><text fill="#000000" font-family="sans-serif" font-size="14" lengthAdjust="spacing" textLength="92" x="893" y="72.2851">userId: String</text><line style="stroke:#181818;stroke-width:0.5;" x1="874" x2="1074" y1="79.5869" y2="79.5869"></line></g><!--class DPR--><g id="elem_DPR"><rect codeline="40" fill="#F1F1F1" height="64.2969" id="DPR" rx="2.5" ry="2.5" style="stroke:#181818;stroke-width:0.5;" width="198" x="1110" y="23.29"></rect><ellipse cx="1125" cy="39.29" fill="#ADD1B2" rx="11" ry="11" style="stroke:#181818;stroke-width:1.0;"></ellipse><path d="M1127.9688,44.9306 Q1127.3906,45.2275 1126.75,45.3681 Q1126.1094,45.5244 1125.4063,45.5244 Q1122.9063,45.5244 1121.5781,43.8838 Q1120.2656,42.2275 1120.2656,39.1025 Q1120.2656,35.9775 1121.5781,34.3213 Q1122.9063,32.665 1125.4063,32.665 Q1126.1094,32.665 1126.75,32.8213 Q1127.4063,32.9775 1127.9688,33.2744 L1127.9688,35.9931 Q1127.3438,35.415 1126.75,35.1494 Q1126.1563,34.8681 1125.5313,34.8681 Q1124.1875,34.8681 1123.5,35.9463 Q1122.8125,37.0088 1122.8125,39.1025 Q1122.8125,41.1963 1123.5,42.2744 Q1124.1875,43.3369 1125.5313,43.3369 Q1126.1563,43.3369 1126.75,43.0713 Q1127.3438,42.79 1127.9688,42.2119 L1127.9688,44.9306 Z " fill="#000000"></path><text fill="#000000" font-family="sans-serif" font-size="14" lengthAdjust="spacing" textLength="166" x="1139" y="44.1367">DeletePersonResponse</text><line style="stroke:#181818;stroke-width:0.5;" x1="1111" x2="1307" y1="55.29" y2="55.29"></line><rect fill="none" height="6" style="stroke:#C82930;stroke-width:1.0;" width="6" x="1118" y="65.9384"></rect><text fill="#000000" font-family="sans-serif" font-size="14" lengthAdjust="spacing" textLength="92" x="1130" y="72.2851">userId: String</text><line style="stroke:#181818;stroke-width:0.5;" x1="1111" x2="1307" y1="79.5869" y2="79.5869"></line></g><!--link PC to PS--><g id="link_PC_PS"><path codeline="44" d="M640,293.87 C640,311.21 640,329.93 640,347.13 " fill="none" id="PC-to-PS" style="stroke:#181818;stroke-width:1.0;"></path><polygon fill="#181818" points="640,351.9,644,342.9,640,346.9,636,342.9,640,351.9" style="stroke:#181818;stroke-width:1.0;"></polygon></g><!--link CPR to PC--><g id="link_CPR_PC"><path codeline="45" d="M189.67,96.22 C196.51,98.92 203.34,101.51 210,103.89 C268.04,124.66 331.41,144.45 391.24,161.86 " fill="none" id="CPR-to-PC" style="stroke:#181818;stroke-width:1.0;"></path><polygon fill="#181818" points="395.65,163.43,388.1076,157.0966,390.8451,162.047,385.8947,164.7845,395.65,163.43" style="stroke:#181818;stroke-width:1.0;"></polygon></g><!--link CPRs to PC--><g id="link_CPRs_PC"><path codeline="46" d="M384.77,88.04 C421.94,108.37 471.65,135.56 517.33,160.54 " fill="none" id="CPRs-to-PC" style="stroke:#181818;stroke-width:1.0;"></path><polygon fill="#181818" points="521.6,163.42,515.6143,155.5987,517.2105,161.0257,511.7835,162.6219,521.6,163.42" style="stroke:#181818;stroke-width:1.0;"></polygon></g><!--link PR to PC--><g id="link_PR_PC"><path codeline="47" d="M565.69,104.13 C575.81,120.95 587.4,140.22 598.38,158.45 " fill="none" id="PR-to-PC" style="stroke:#181818;stroke-width:1.0;"></path><polygon fill="#181818" points="601.45,162.56,600.2495,152.7846,598.8775,158.2725,593.3896,156.9005,601.45,162.56" style="stroke:#181818;stroke-width:1.0;"></polygon></g><!--link UPR to PC--><g id="link_UPR_PC"><path codeline="48" d="M719.11,96.15 C707.94,114.71 694.31,137.36 681.54,158.6 " fill="none" id="UPR-to-PC" style="stroke:#181818;stroke-width:1.0;"></path><polygon fill="#181818" points="678.48,162.67,686.5404,157.0105,681.0525,158.3825,679.6805,152.8946,678.48,162.67" style="stroke:#181818;stroke-width:1.0;"></polygon></g><!--link UPRs to PC--><g id="link_UPRs_PC"><path codeline="49" d="M912.35,88.04 C872.61,108.41 819.42,135.67 770.6,160.69 " fill="none" id="UPRs-to-PC" style="stroke:#181818;stroke-width:1.0;"></path><polygon fill="#181818" points="766.28,163.42,776.1136,162.8724,770.7291,161.1384,772.4631,155.7539,766.28,163.42" style="stroke:#181818;stroke-width:1.0;"></polygon></g><!--link DPR to PC--><g id="link_DPR_PC"><path codeline="50" d="M1135.56,88.05 C1121.54,93.63 1106.91,99.16 1093,103.89 C1031.84,124.66 965.14,144.43 902.19,161.83 " fill="none" id="DPR-to-PC" style="stroke:#181818;stroke-width:1.0;"></path><polygon fill="#181818" points="897.5,163.4,907.2387,164.8691,902.3208,162.0736,905.1164,157.1557,897.5,163.4" style="stroke:#181818;stroke-width:1.0;"></polygon></g><!--SRC=[xLEnZeCm3Dtp5HRJLLT-WE6MiDo6YlY022o4n0KQXovL_xrfGY3fWUwwTxEV_PxjHwXxGGH9WOe6oGUfrT3tg18G10M7AmD8HriiKLsw6ZCemjJKFsk5GgE3FnIU9oIT0G_GamCFpoYDWoIhqQAU1IP2zTraK6hLoVRWvuNDqzYi0-F-8omBL47Nka2ChfeDzhYZQLXvK5rODyRgqBxP4kTTQRrxUvDit6eTuiN9FIyfVj3BFNBHchIJUbV3ZV0Yv5JYjNvzcuZb9pzn_hVBXdLMj7hXdYsZlSXVzspPRRdvpbc6QlxaDFqoZv8zNBSXPzQxELxHAWgNXdo1xm00]--></g></svg>